<svg width="512" height="512" viewBox="0 0 512 512" fill="none" xmlns="http://www.w3.org/2000/svg">
  <rect width="512" height="512" rx="132" fill="#0E3B20"/>
  <rect x="28" y="28" width="456" height="456" rx="116" fill="url(#bg)"/>
  <path
    d="M372 100H206C182.804 100 164 118.804 164 142V370C164 393.196 182.804 412 206 412H348C371.196 412 390 393.196 390 370V118C390 108.059 381.941 100 372 100Z"
    fill="url(#page)"
    fill-opacity="0.18"/>
  <path d="M346 100V148C346 161.255 356.745 172 370 172H390" fill="url(#pageFold)" fill-opacity="0.28"/>

  <ellipse cx="246" cy="286" rx="106" ry="80" transform="rotate(-16 246 286)" fill="#F6F9F3"/>
  <circle cx="321" cy="215" r="39" fill="#F6F9F3"/>
  <path d="M349 210L409 199C417 198 422 206 417 212L352 228L349 210Z" fill="#F6F9F3"/>
  <path d="M211 351L200 391" stroke="#F6F9F3" stroke-width="14" stroke-linecap="round"/>
  <path d="M262 362L249 405" stroke="#F6F9F3" stroke-width="14" stroke-linecap="round"/>
  <circle cx="309" cy="211" r="10" fill="#0E3B20" fill-opacity="0.92"/>

  <path d="M370 172C356.745 172 346 161.255 346 148V100L390 144V172H370Z" fill="url(#pageFold)" fill-opacity="0.7"/>

  <defs>
    <linearGradient id="bg" x1="50" y1="36" x2="466" y2="476" gradientUnits="userSpaceOnUse">
      <stop stop-color="#52A63A"/>
      <stop offset="0.55" stop-color="#3C8D2C"/>
      <stop offset="1" stop-color="#1F5F2B"/>
    </linearGradient>
    <linearGradient id="page" x1="168" y1="108" x2="388" y2="408" gradientUnits="userSpaceOnUse">
      <stop stop-color="#DDF6D5"/>
      <stop offset="1" stop-color="#A4D98B"/>
    </linearGradient>
    <linearGradient id="pageFold" x1="346" y1="100" x2="390" y2="172" gradientUnits="userSpaceOnUse">
      <stop stop-color="#F6FFF2"/>
      <stop offset="1" stop-color="#C5E8B8"/>
    </linearGradient>
  </defs>
</svg>
